<?xml version="1.0" encoding="UTF-8"?>
<svg xmlns="http://www.w3.org/2000/svg" width="263" height="52" viewBox="0 0 263 52" fill="none">
  <path d="M19.8609 18.6795C17.9995 21.1831 14.9452 22.8348 11.2225 22.8348C5.31718 22.8348 0.519531 17.9519 0.519531 11.9025C0.519531 5.85296 5.25819 0.911133 11.5436 0.911133C14.8863 0.911133 17.5079 2.24818 19.0744 3.96537V7.28178C17.2982 4.92883 14.5651 3.41483 11.5436 3.41483C6.83119 3.41483 3.20018 7.11137 3.20018 11.909C3.20018 16.7067 6.77876 20.3704 11.3405 20.3704C13.9556 20.3704 15.8497 19.4397 17.213 17.9257V13.2723H11.2225L11.891 10.9783H19.8609V18.686V18.6795Z" fill="black"></path>
  <path d="M29.3118 22.4875H26.6377V1.25854H31.8745C36.2658 1.25854 39.4904 3.50007 39.4904 7.485C39.4904 10.5655 37.5438 12.5776 34.6338 13.3313L42.0531 22.494H38.8809L31.7565 13.6525H29.3118V22.494V22.4875ZM29.3118 11.4634H31.8417C34.719 11.4634 36.7573 10.0673 36.7573 7.47844C36.7573 4.88954 34.719 3.49352 31.8417 3.49352H29.3118V11.4634Z" fill="black"></path>
  <path d="M66.5922 11.8697C66.5922 17.9192 61.7946 22.8348 55.8303 22.8348C49.866 22.8348 45.0684 17.9192 45.0684 11.8697C45.0684 5.82017 49.866 0.904541 55.8303 0.904541C61.7946 0.904541 66.5922 5.82017 66.5922 11.8697ZM47.749 11.8697C47.749 16.6411 51.3538 20.3311 55.8303 20.3311C60.3068 20.3311 63.9181 16.6345 63.9181 11.8697C63.9181 7.10479 60.3133 3.40824 55.8303 3.40824C51.3472 3.40824 47.749 7.10479 47.749 11.8697Z" fill="black"></path>
  <path d="M79.6552 20.4491C82.8274 20.4491 85.0624 18.2076 85.0624 14.1702V1.25854H87.7365V14.2292C87.7365 19.6364 84.1579 22.8348 79.6552 22.8348C75.1525 22.8348 71.5674 19.6364 71.5674 14.2292V1.25854H74.2415V14.1702C74.2415 18.2141 76.483 20.4491 79.6487 20.4491H79.6552Z" fill="black"></path>
  <path d="M109.549 1.25841H112.196V23.2148L96.7221 6.92775V22.4873H94.0742V0.530884L109.549 16.818V1.25841Z" fill="black"></path>
  <path d="M125.488 1.25854C131.505 1.25854 136.335 5.82678 136.335 11.8763C136.335 17.9258 131.505 22.494 125.488 22.494H119.583V1.26511H125.488V1.25854ZM122.257 3.52628V20.2197H125.338C130.135 20.2197 133.655 16.5232 133.655 11.8697C133.655 7.21628 130.135 3.52628 125.338 3.52628H122.257Z" fill="black"></path>
  <path d="M147.182 20.508C149.738 20.508 151.599 19.1972 151.599 16.9885C151.599 15.363 150.642 14.5438 148.892 13.6458L145.346 11.8697C143.164 10.762 141.244 9.48393 141.244 6.63287C141.244 3.23126 144.009 0.904541 147.699 0.904541C150.026 0.904541 152.032 1.89422 153.343 3.05431V5.93159C151.717 4.33238 149.738 3.22472 147.614 3.22472C145.491 3.22472 143.806 4.41757 143.806 6.45592C143.806 8.02892 145.025 8.80887 146.513 9.59537L149.915 11.2798C152.674 12.6431 154.162 13.9866 154.162 16.7787C154.162 20.4753 151.049 22.8282 147.123 22.8282C144.508 22.8282 142.148 21.7796 140.844 20.6785V17.7684C142.62 19.4004 144.855 20.5015 147.182 20.5015V20.508Z" fill="black"></path>
  <path d="M160.297 1.25854H172.861V3.52628H162.945V10.5327H172.048V12.8004H162.945V20.2197H172.946V22.4875H160.297V1.25854Z" fill="black"></path>
  <path d="M179.317 1.25854H191.882V3.52628H181.965V10.5327H191.069V12.8004H181.965V20.2197H191.967V22.4875H179.317V1.25854Z" fill="black"></path>
  <path d="M203.862 20.508C206.418 20.508 208.28 19.1972 208.28 16.9885C208.28 15.363 207.323 14.5438 205.573 13.6458L202.027 11.8697C199.845 10.762 197.924 9.48393 197.924 6.63287C197.924 3.23126 200.69 0.904541 204.38 0.904541C206.707 0.904541 208.712 1.89422 210.023 3.05431V5.93159C208.398 4.33238 206.418 3.22472 204.295 3.22472C202.171 3.22472 200.487 4.41757 200.487 6.45592C200.487 8.02892 201.706 8.80887 203.194 9.59537L206.595 11.2798C209.355 12.6431 210.842 13.9866 210.842 16.7787C210.842 20.4753 207.729 22.8282 203.803 22.8282C201.188 22.8282 198.829 21.7796 197.524 20.6785V17.7684C199.301 19.4004 201.536 20.5015 203.862 20.5015V20.508Z" fill="black"></path>
  <path d="M233.697 22.4874H230.846L228.231 16.7001H218.577L215.962 22.4874H213.144L223.407 0.498169L233.704 22.4874H233.697ZM219.56 14.5503H227.235L223.394 6.05611L219.554 14.5503H219.56Z" fill="black"></path>
  <path d="M241.955 23.2411L233.553 1.25843H236.463L242.073 16.5821L248.037 0.642334L254.002 16.5821L259.586 1.25843H262.404L254.002 23.2411L247.978 7.30137L241.962 23.2411H241.955Z" fill="black"></path>
  <path d="M78.7429 49.2152C80.755 49.2152 82.2231 48.1862 82.2231 46.4428C82.2231 45.1582 81.4694 44.5224 80.093 43.808L77.301 42.412C75.5838 41.5403 74.0763 40.5375 74.0763 38.2894C74.0763 35.6088 76.2523 33.7802 79.1558 33.7802C80.9844 33.7802 82.5705 34.5601 83.5995 35.4711V37.7389C82.3149 36.4805 80.7616 35.6088 79.0903 35.6088C77.4189 35.6088 76.0884 36.546 76.0884 38.1518C76.0884 39.3905 77.0519 40.0066 78.2186 40.6227L80.8992 41.9532C83.0752 43.0281 84.2418 44.0833 84.2418 46.2789C84.2418 49.189 81.7906 51.0373 78.7036 51.0373C76.6456 51.0373 74.7907 50.2114 73.7617 49.3463V47.0589C75.1578 48.3435 76.9208 49.2087 78.7494 49.2087L78.7429 49.2152Z" fill="black"></path>
  <path d="M89.0654 34.062H98.9557V35.8447H91.1496V41.3633H98.3134V43.146H91.1496V48.9858H99.0278V50.7685H89.072V34.0554L89.0654 34.062Z" fill="black"></path>
  <path d="M119.694 42.4186C119.694 47.1769 115.919 51.0504 111.226 51.0504C106.533 51.0504 102.758 47.1834 102.758 42.4186C102.758 37.6537 106.533 33.7867 111.226 33.7867C115.919 33.7867 119.694 37.6537 119.694 42.4186ZM104.862 42.4186C104.862 46.1741 107.7 49.0776 111.226 49.0776C114.752 49.0776 117.59 46.1675 117.59 42.4186C117.59 38.6696 114.752 35.7595 111.226 35.7595C107.7 35.7595 104.862 38.6696 104.862 42.4186Z" fill="black"></path>
  <path d="M135.233 34.062H137.318V51.3454L125.14 38.5254V50.7751H123.056V33.4918L135.233 46.3118V34.062Z" fill="black"></path>
  <path d="M156.357 47.7733C154.889 49.7396 152.49 51.0438 149.561 51.0438C144.914 51.0438 141.139 47.1965 141.139 42.4382C141.139 37.6799 144.868 33.7867 149.816 33.7867C152.451 33.7867 154.509 34.842 155.748 36.1921V38.8007C154.352 36.9458 152.202 35.753 149.816 35.753C146.107 35.753 143.249 38.663 143.249 42.4382C143.249 46.2134 146.067 49.0973 149.659 49.0973C151.717 49.0973 153.205 48.3632 154.286 47.1769V43.5131H149.567L150.092 41.7042H156.364V47.7733H156.357Z" fill="black"></path>
  <path d="M165.494 49.2152C167.506 49.2152 168.974 48.1862 168.974 46.4428C168.974 45.1582 168.22 44.5224 166.844 43.808L164.052 42.412C162.335 41.5403 160.827 40.5375 160.827 38.2894C160.827 35.6088 163.003 33.7802 165.907 33.7802C167.735 33.7802 169.321 34.5601 170.35 35.4711V37.7389C169.066 36.4805 167.513 35.6088 165.841 35.6088C164.17 35.6088 162.839 36.546 162.839 38.1518C162.839 39.3905 163.803 40.0066 164.97 40.6227L167.65 41.9532C169.826 43.0281 170.993 44.0833 170.993 46.2789C170.993 49.189 168.542 51.0373 165.455 51.0373C163.397 51.0373 161.542 50.2114 160.513 49.3463V47.0589C161.909 48.3435 163.672 49.2087 165.5 49.2087L165.494 49.2152Z" fill="black"></path>
  <path d="M181.806 49.1694C184.304 49.1694 186.067 47.4063 186.067 44.2275V34.062H188.171V44.2734C188.171 48.5336 185.352 51.0504 181.806 51.0504C178.261 51.0504 175.442 48.5336 175.442 44.2734V34.062H177.546V44.2275C177.546 47.4063 179.309 49.1694 181.806 49.1694Z" fill="black"></path>
</svg>
