<?xml version="1.0" encoding="UTF-8"?>
<svg xmlns="http://www.w3.org/2000/svg" width="263" height="51" viewBox="0 0 263 51" fill="none">
  <path d="M19.8609 18.5335C17.9995 21.0372 14.9452 22.6954 11.2225 22.6954C5.31718 22.6954 0.519531 17.806 0.519531 11.7565C0.519531 5.70704 5.25819 0.765198 11.5436 0.765198C14.8863 0.765198 17.5079 2.10225 19.0744 3.81944V7.13584C17.2982 4.7829 14.5651 3.26889 11.5436 3.26889C6.83119 3.26889 3.20018 6.96543 3.20018 11.7631C3.20018 16.5607 6.77876 20.2245 11.3405 20.2245C13.9556 20.2245 15.8497 19.2938 17.213 17.7798V13.1263H11.2225L11.891 10.8258H19.8609V18.5335Z" fill="black"></path>
  <path d="M29.3118 22.3415H26.6377V1.11255H31.8745C36.2658 1.11255 39.4904 3.35407 39.4904 7.339C39.4904 10.4195 37.5438 12.4316 34.6338 13.1853L42.0531 22.348H38.8809L31.7565 13.5065H29.3118V22.348V22.3415ZM29.3118 11.3174H31.8417C34.719 11.3174 36.7573 9.92134 36.7573 7.33245C36.7573 4.74356 34.719 3.34752 31.8417 3.34752H29.3118V11.3174Z" fill="black"></path>
  <path d="M66.5922 11.7303C66.5922 17.7798 61.7946 22.6954 55.8303 22.6954C49.866 22.6954 45.0684 17.7798 45.0684 11.7303C45.0684 5.68082 49.8726 0.765198 55.8303 0.765198C61.788 0.765198 66.5922 5.68082 66.5922 11.7303ZM47.749 11.7303C47.749 16.5017 51.3538 20.1917 55.8303 20.1917C60.3068 20.1917 63.9181 16.4952 63.9181 11.7303C63.9181 6.96543 60.3133 3.26889 55.8303 3.26889C51.3472 3.26889 47.749 6.96543 47.749 11.7303Z" fill="black"></path>
  <path d="M79.6552 20.3097C82.8274 20.3097 85.0624 18.0682 85.0624 14.0308V1.11255H87.7365V14.0832C87.7365 19.4904 84.1579 22.6888 79.6552 22.6888C75.1525 22.6888 71.5674 19.4904 71.5674 14.0832V1.11255H74.2415V14.0242C74.2415 18.0682 76.483 20.3031 79.6487 20.3031L79.6552 20.3097Z" fill="black"></path>
  <path d="M109.549 1.11252H112.196V23.069L96.7221 6.78187V22.3415H94.0742V0.38501L109.549 16.6721V1.11252Z" fill="black"></path>
  <path d="M125.488 1.11255C131.505 1.11255 136.335 5.6808 136.335 11.7303C136.335 17.7798 131.505 22.348 125.488 22.348H119.583V1.11255H125.488ZM122.257 3.38029V20.0737H125.338C130.135 20.0737 133.655 16.3837 133.655 11.7303C133.655 7.07684 130.135 3.38029 125.338 3.38029H122.257Z" fill="black"></path>
  <path d="M147.182 20.3687C149.738 20.3687 151.599 19.0579 151.599 16.8491C151.599 15.2237 150.642 14.4044 148.892 13.5065L145.346 11.7303C143.164 10.6227 141.244 9.3446 141.244 6.49354C141.244 3.09193 144.009 0.765198 147.699 0.765198C150.026 0.765198 152.032 1.75488 153.343 2.91496V5.79224C151.717 4.19302 149.738 3.08537 147.614 3.08537C145.491 3.08537 143.806 4.27823 143.806 6.31657C143.806 7.88957 145.025 8.66952 146.513 9.45602L149.915 11.1404C152.674 12.5103 154.162 13.8473 154.162 16.6394C154.162 20.3359 151.049 22.6889 147.123 22.6889C144.508 22.6889 142.148 21.6402 140.844 20.5391V17.6291C142.62 19.261 144.855 20.3621 147.182 20.3621V20.3687Z" fill="black"></path>
  <path d="M160.297 1.11255H172.861V3.38029H162.945V10.3932H172.048V12.661H162.945V20.0737H172.946V22.3415H160.297V1.11255Z" fill="black"></path>
  <path d="M179.317 1.11255H191.882V3.38029H181.965V10.3932H191.069V12.661H181.965V20.0737H191.967V22.3415H179.317V1.11255Z" fill="black"></path>
  <path d="M203.862 20.3687C206.418 20.3687 208.28 19.0579 208.28 16.8491C208.28 15.2237 207.323 14.4044 205.573 13.5065L202.027 11.7303C199.845 10.6227 197.924 9.3446 197.924 6.49354C197.924 3.09193 200.69 0.765198 204.38 0.765198C206.707 0.765198 208.712 1.75488 210.023 2.91496V5.79224C208.398 4.19302 206.418 3.08537 204.295 3.08537C202.171 3.08537 200.487 4.27823 200.487 6.31657C200.487 7.88957 201.706 8.66952 203.194 9.45602L206.595 11.1404C209.355 12.5103 210.842 13.8473 210.842 16.6394C210.842 20.3359 207.729 22.6889 203.803 22.6889C201.188 22.6889 198.829 21.6402 197.524 20.5391V17.6291C199.301 19.261 201.536 20.3621 203.862 20.3621V20.3687Z" fill="black"></path>
  <path d="M233.697 22.3415H230.846L228.231 16.5542H218.577L215.962 22.3415H213.144L223.401 0.358826L233.697 22.3415ZM219.56 14.4044H227.235L223.394 5.9102L219.554 14.4044H219.56Z" fill="black"></path>
  <path d="M241.955 23.1017L233.553 1.11253H236.463L242.073 16.4362L248.037 0.502991L254.002 16.4427L259.586 1.11908H262.404L254.002 23.1083L247.978 7.16857L241.962 23.1083L241.955 23.1017Z" fill="black"></path>
  <path d="M77.3474 48.7351C79.3595 48.7351 80.8276 47.7061 80.8276 45.9627C80.8276 44.6781 80.0739 44.0423 78.6975 43.3279L75.9055 41.9319C74.1883 41.0602 72.6808 40.0574 72.6808 37.8093C72.6808 35.1287 74.8568 33.3 77.7603 33.3C79.5889 33.3 81.175 34.08 82.204 34.991V37.2588C80.9194 36.0004 79.3661 35.1287 77.6947 35.1287C76.0234 35.1287 74.6929 36.0659 74.6929 37.6717C74.6929 38.9104 75.6564 39.5265 76.823 40.1426L79.5037 41.4731C81.6797 42.548 82.8463 43.6032 82.8463 45.7988C82.8463 48.7089 80.3951 50.5637 77.308 50.5637C75.25 50.5637 73.3952 49.7379 72.3662 48.8727V46.5853C73.7622 47.87 75.5253 48.7351 77.3539 48.7351H77.3474Z" fill="black"></path>
  <path d="M87.2119 33.5819H97.1021V35.3646H89.2961V40.8832H96.4598V42.6659H89.2961V48.5057H97.1742V50.2884H87.2185V33.5753L87.2119 33.5819Z" fill="black"></path>
  <path d="M117.38 41.9384C117.38 46.7033 113.605 50.5702 108.912 50.5702C104.22 50.5702 100.444 46.7033 100.444 41.9384C100.444 37.1735 104.22 33.3066 108.912 33.3066C113.605 33.3066 117.38 37.1735 117.38 41.9384ZM102.548 41.9384C102.548 45.6939 105.386 48.5974 108.912 48.5974C112.438 48.5974 115.276 45.6874 115.276 41.9384C115.276 38.1894 112.438 35.2794 108.912 35.2794C105.386 35.2794 102.548 38.1894 102.548 41.9384Z" fill="black"></path>
  <path d="M133.36 46.6312V49.1021C132.075 50.0394 130.476 50.5702 128.693 50.5702C124.001 50.5702 120.199 46.7033 120.199 41.9384C120.199 37.1735 124.001 33.3066 128.693 33.3066C130.476 33.3066 132.082 33.8309 133.36 34.7747V37.2456C132.239 36.0069 130.568 35.3253 128.733 35.3253C125.141 35.3253 122.303 38.2353 122.303 41.9384C122.303 45.6415 125.141 48.5516 128.733 48.5516C130.561 48.5516 132.233 47.8634 133.36 46.6312Z" fill="black"></path>
  <path d="M149.607 42.6725H140.424V50.295H138.32V33.5818H140.424V40.8832H149.607V33.5818H151.71V50.295H149.607V42.6725Z" fill="black"></path>
  <path d="M172.036 41.9384C172.036 46.7033 168.26 50.5702 163.568 50.5702C158.875 50.5702 155.1 46.7033 155.1 41.9384C155.1 37.1735 158.875 33.3066 163.568 33.3066C168.26 33.3066 172.036 37.1735 172.036 41.9384ZM157.203 41.9384C157.203 45.6939 160.041 48.5974 163.568 48.5974C167.094 48.5974 169.932 45.6874 169.932 41.9384C169.932 38.1894 167.094 35.2794 163.568 35.2794C160.041 35.2794 157.203 38.1894 157.203 41.9384Z" fill="black"></path>
  <path d="M187.582 33.5819H189.666V50.8652L177.489 38.0453V50.295H175.404V33.0117L187.582 45.8316V33.5819Z" fill="black"></path>
</svg>
