<?xml version="1.0" encoding="UTF-8"?>
<svg xmlns="http://www.w3.org/2000/svg" width="263" height="52" viewBox="0 0 263 52" fill="none">
  <path d="M19.8609 18.4573C17.9995 20.961 14.9452 22.6126 11.2225 22.6126C5.31718 22.6126 0.519531 17.7298 0.519531 11.6803C0.519531 5.6308 5.25819 0.688965 11.5436 0.688965C14.8863 0.688965 17.5079 2.02601 19.0744 3.7432V7.05961C17.2982 4.70667 14.5651 3.19265 11.5436 3.19265C6.83119 3.19265 3.20018 6.8892 3.20018 11.6868C3.20018 16.4845 6.77876 20.1483 11.3405 20.1483C13.9556 20.1483 15.8497 19.2176 17.213 17.7036V13.0501H11.2225L11.891 10.7562H19.8609V18.4638V18.4573Z" fill="black"></path>
  <path d="M29.3118 22.2719H26.6377V1.04297H31.8745C36.2658 1.04297 39.4904 3.28449 39.4904 7.26942C39.4904 10.3499 37.5438 12.362 34.6338 13.1157L42.0531 22.2785H38.8809L31.7565 13.4369H29.3118V22.2785V22.2719ZM29.3118 11.2478H31.8417C34.719 11.2478 36.7573 9.85177 36.7573 7.26287C36.7573 4.67398 34.719 3.27794 31.8417 3.27794H29.3118V11.2478Z" fill="black"></path>
  <path d="M66.5922 11.6541C66.5922 17.7036 61.7946 22.6192 55.8303 22.6192C49.866 22.6192 45.0684 17.7036 45.0684 11.6541C45.0684 5.60458 49.866 0.688965 55.8303 0.688965C61.7946 0.688965 66.5922 5.60458 66.5922 11.6541ZM47.749 11.6541C47.749 16.4255 51.3538 20.1155 55.8303 20.1155C60.3068 20.1155 63.9181 16.419 63.9181 11.6541C63.9181 6.8892 60.3133 3.19265 55.8303 3.19265C51.3472 3.19265 47.749 6.8892 47.749 11.6541Z" fill="black"></path>
  <path d="M79.6552 20.2336C82.8274 20.2336 85.0624 17.992 85.0624 13.9547V1.04297H87.7365V14.0137C87.7365 19.4208 84.1579 22.6193 79.6552 22.6193C75.1525 22.6193 71.5674 19.4208 71.5674 14.0137V1.04297H74.2415V13.9547C74.2415 17.9986 76.483 20.2336 79.6487 20.2336H79.6552Z" fill="black"></path>
  <path d="M109.549 1.03635H112.196V22.9928L96.7221 6.7057V22.2653H94.0742V0.308838L109.549 16.5959V1.03635Z" fill="black"></path>
  <path d="M125.488 1.03638C131.505 1.03638 136.335 5.60463 136.335 11.6541C136.335 17.7036 131.505 22.2719 125.488 22.2719H119.583V1.04293H125.488V1.03638ZM122.257 3.30411V19.9976H125.338C130.135 19.9976 133.655 16.301 133.655 11.6476C133.655 6.99411 130.135 3.30411 125.338 3.30411H122.257Z" fill="black"></path>
  <path d="M147.182 20.2925C149.738 20.2925 151.599 18.9816 151.599 16.7729C151.599 15.1474 150.642 14.3282 148.892 13.4303L145.346 11.6541C143.164 10.5464 141.244 9.26836 141.244 6.4173C141.244 3.01569 144.009 0.688965 147.699 0.688965C150.026 0.688965 152.032 1.67864 153.343 2.83873V5.71601C151.717 4.11679 149.738 3.00913 147.614 3.00913C145.491 3.00913 143.806 4.202 143.806 6.24034C143.806 7.81334 145.025 8.59328 146.513 9.37978L149.915 11.0642C152.674 12.4275 154.162 13.7711 154.162 16.5631C154.162 20.2597 151.049 22.6126 147.123 22.6126C144.508 22.6126 142.148 21.564 140.844 20.4629V17.5528C142.62 19.1848 144.855 20.2859 147.182 20.2859V20.2925Z" fill="black"></path>
  <path d="M160.297 1.03638H172.861V3.30411H162.945V10.3105H172.048V12.5783H162.945V19.9976H172.946V22.2653H160.297V1.03638Z" fill="black"></path>
  <path d="M179.317 1.03638H191.882V3.30411H181.965V10.3105H191.069V12.5783H181.965V19.9976H191.967V22.2653H179.317V1.03638Z" fill="black"></path>
  <path d="M203.862 20.2925C206.418 20.2925 208.28 18.9816 208.28 16.7729C208.28 15.1474 207.323 14.3282 205.573 13.4303L202.027 11.6541C199.845 10.5464 197.924 9.26836 197.924 6.4173C197.924 3.01569 200.69 0.688965 204.38 0.688965C206.707 0.688965 208.712 1.67864 210.023 2.83873V5.71601C208.398 4.11679 206.418 3.00913 204.295 3.00913C202.171 3.00913 200.487 4.202 200.487 6.24034C200.487 7.81334 201.706 8.59328 203.194 9.37978L206.595 11.0642C209.355 12.4275 210.842 13.7711 210.842 16.5631C210.842 20.2597 207.729 22.6126 203.803 22.6126C201.188 22.6126 198.829 21.564 197.524 20.4629V17.5528C199.301 19.1848 201.536 20.2859 203.862 20.2859V20.2925Z" fill="black"></path>
  <path d="M233.697 22.2719H230.846L228.231 16.4846H218.577L215.962 22.2719H213.144L223.407 0.282715L233.704 22.2719H233.697ZM219.56 14.3348H227.235L223.394 5.84065L219.554 14.3348H219.56Z" fill="black"></path>
  <path d="M241.955 23.0255L233.553 1.04285H236.463L242.073 16.3665L248.037 0.426758L254.002 16.3665L259.586 1.04285H262.404L254.002 23.0255L247.978 7.08579L241.962 23.0255H241.955Z" fill="black"></path>
  <path d="M56.6558 33.178L61.283 50.4875H59.107L56.1773 39.1095L50.5932 50.966L44.9828 39.1095L42.0531 50.4875H39.9033L44.5043 33.178L50.5932 46.3846L56.6623 33.178H56.6558Z" fill="black"></path>
  <path d="M68.6503 50.4875V42.6553L62.4238 33.7744H64.8292L69.7055 40.7087L74.6015 33.7744H77.0068L70.7804 42.6553V50.4875H68.6503Z" fill="black"></path>
  <path d="M80.6445 33.7744H90.5348V35.5571H82.7288V41.0757H89.8925V42.8584H82.7288V48.6982H90.6069V50.4809H80.6511V33.7678L80.6445 33.7744Z" fill="black"></path>
  <path d="M110.813 42.1309C110.813 46.8892 107.038 50.7627 102.345 50.7627C97.6521 50.7627 93.877 46.8957 93.877 42.1309C93.877 37.366 97.6521 33.499 102.345 33.499C107.038 33.499 110.813 37.366 110.813 42.1309ZM95.9808 42.1309C95.9808 45.8864 98.8188 48.7899 102.345 48.7899C105.871 48.7899 108.709 45.8798 108.709 42.1309C108.709 38.3819 105.871 35.4718 102.345 35.4718C98.8188 35.4718 95.9808 38.3819 95.9808 42.1309Z" fill="black"></path>
  <path d="M126.811 33.7743H128.896V51.0576L116.718 38.2377V50.4874H114.634V33.2041L126.811 46.024V33.7743Z" fill="black"></path>
  <path d="M147.936 47.4856C146.467 49.4519 144.069 50.7561 141.139 50.7561C136.492 50.7561 132.717 46.9088 132.717 42.1505C132.717 37.3922 136.446 33.499 141.395 33.499C144.029 33.499 146.087 34.5542 147.326 35.9044V38.513C145.93 36.6581 143.78 35.4653 141.395 35.4653C137.685 35.4653 134.827 38.3753 134.827 42.1505C134.827 45.9257 137.646 48.8095 141.237 48.8095C143.295 48.8095 144.783 48.0755 145.864 46.8892V43.2254H141.145L141.67 41.4165H147.942V47.4856H147.936Z" fill="black"></path>
  <path d="M157 33.7744C161.739 33.7744 165.54 37.3661 165.54 42.131C165.54 46.8958 161.739 50.4875 157 50.4875H152.354V33.7744H157ZM154.457 35.5571V48.6982H156.882C160.658 48.6982 163.43 45.7882 163.43 42.131C163.43 38.4737 160.658 35.5637 156.882 35.5637H154.457V35.5571Z" fill="black"></path>
  <path d="M185.288 42.1309C185.288 46.8892 181.513 50.7627 176.821 50.7627C172.128 50.7627 168.353 46.8957 168.353 42.1309C168.353 37.366 172.128 33.499 176.821 33.499C181.513 33.499 185.288 37.366 185.288 42.1309ZM170.456 42.1309C170.456 45.8864 173.294 48.7899 176.821 48.7899C180.347 48.7899 183.185 45.8798 183.185 42.1309C183.185 38.3819 180.347 35.4718 176.821 35.4718C173.294 35.4718 170.456 38.3819 170.456 42.1309Z" fill="black"></path>
  <path d="M201.287 33.7743H203.371V51.0576L191.194 38.2377V50.4874H189.109V33.2041L201.287 46.024V33.7743Z" fill="black"></path>
  <path d="M222.417 47.4856C220.949 49.4519 218.55 50.7561 215.62 50.7561C210.973 50.7561 207.198 46.9088 207.198 42.1505C207.198 37.3922 210.928 33.499 215.876 33.499C218.511 33.499 220.569 34.5542 221.807 35.9044V38.513C220.411 36.6581 218.262 35.4653 215.876 35.4653C212.166 35.4653 209.309 38.3753 209.309 42.1505C209.309 45.9257 212.127 48.8095 215.719 48.8095C217.777 48.8095 219.264 48.0755 220.346 46.8892V43.2254H215.627L216.151 41.4165H222.424V47.4856H222.417Z" fill="black"></path>
</svg>
